G04 EAGLE Gerber X2 export*
%TF.Part,Single*%
%TF.FileFunction,Legend,Bot,1*%
%TF.FilePolarity,Positive*%
%TF.GenerationSoftware,Autodesk,EAGLE,8.7.1*%
%TF.CreationDate,2018-07-15T20:23:54Z*%
G75*
%MOMM*%
%FSLAX34Y34*%
%LPD*%
%AMOC8*
5,1,8,0,0,1.08239X$1,22.5*%
G01*
%ADD10C,0.101600*%


D10*
X407088Y483217D02*
X405140Y483217D01*
X405140Y476726D01*
X409035Y476726D01*
X409134Y476728D01*
X409234Y476734D01*
X409333Y476743D01*
X409431Y476756D01*
X409529Y476773D01*
X409627Y476794D01*
X409723Y476819D01*
X409818Y476847D01*
X409912Y476879D01*
X410005Y476914D01*
X410097Y476953D01*
X410187Y476996D01*
X410275Y477041D01*
X410362Y477091D01*
X410446Y477143D01*
X410529Y477199D01*
X410609Y477257D01*
X410687Y477319D01*
X410762Y477384D01*
X410835Y477452D01*
X410905Y477522D01*
X410973Y477595D01*
X411038Y477670D01*
X411100Y477748D01*
X411158Y477828D01*
X411214Y477911D01*
X411266Y477995D01*
X411316Y478082D01*
X411361Y478170D01*
X411404Y478260D01*
X411443Y478352D01*
X411478Y478445D01*
X411510Y478539D01*
X411538Y478634D01*
X411563Y478730D01*
X411584Y478828D01*
X411601Y478926D01*
X411614Y479024D01*
X411623Y479123D01*
X411629Y479223D01*
X411631Y479322D01*
X411632Y479322D02*
X411632Y485814D01*
X411631Y485814D02*
X411629Y485913D01*
X411623Y486013D01*
X411614Y486112D01*
X411601Y486210D01*
X411584Y486308D01*
X411563Y486406D01*
X411538Y486502D01*
X411510Y486597D01*
X411478Y486691D01*
X411443Y486784D01*
X411404Y486876D01*
X411361Y486966D01*
X411316Y487054D01*
X411266Y487141D01*
X411214Y487225D01*
X411158Y487308D01*
X411100Y487388D01*
X411038Y487466D01*
X410973Y487541D01*
X410905Y487614D01*
X410835Y487684D01*
X410762Y487752D01*
X410687Y487817D01*
X410609Y487879D01*
X410529Y487937D01*
X410446Y487993D01*
X410362Y488045D01*
X410275Y488095D01*
X410187Y488140D01*
X410097Y488183D01*
X410005Y488222D01*
X409912Y488257D01*
X409818Y488289D01*
X409723Y488317D01*
X409627Y488342D01*
X409529Y488363D01*
X409431Y488380D01*
X409333Y488393D01*
X409234Y488402D01*
X409134Y488408D01*
X409035Y488410D01*
X405140Y488410D01*
X399440Y488410D02*
X399440Y476726D01*
X392948Y476726D02*
X399440Y488410D01*
X392948Y488410D02*
X392948Y476726D01*
X387248Y476726D02*
X387248Y488410D01*
X384002Y488410D01*
X383889Y488408D01*
X383776Y488402D01*
X383663Y488392D01*
X383550Y488378D01*
X383438Y488361D01*
X383327Y488339D01*
X383217Y488314D01*
X383107Y488284D01*
X382999Y488251D01*
X382892Y488214D01*
X382786Y488174D01*
X382682Y488129D01*
X382579Y488081D01*
X382478Y488030D01*
X382379Y487975D01*
X382282Y487917D01*
X382187Y487855D01*
X382094Y487790D01*
X382004Y487722D01*
X381916Y487651D01*
X381830Y487576D01*
X381747Y487499D01*
X381667Y487419D01*
X381590Y487336D01*
X381515Y487250D01*
X381444Y487162D01*
X381376Y487072D01*
X381311Y486979D01*
X381249Y486884D01*
X381191Y486787D01*
X381136Y486688D01*
X381085Y486587D01*
X381037Y486484D01*
X380992Y486380D01*
X380952Y486274D01*
X380915Y486167D01*
X380882Y486059D01*
X380852Y485949D01*
X380827Y485839D01*
X380805Y485728D01*
X380788Y485616D01*
X380774Y485503D01*
X380764Y485390D01*
X380758Y485277D01*
X380756Y485164D01*
X380756Y479972D01*
X380758Y479859D01*
X380764Y479746D01*
X380774Y479633D01*
X380788Y479520D01*
X380805Y479408D01*
X380827Y479297D01*
X380852Y479187D01*
X380882Y479077D01*
X380915Y478969D01*
X380952Y478862D01*
X380992Y478756D01*
X381037Y478652D01*
X381085Y478549D01*
X381136Y478448D01*
X381191Y478349D01*
X381249Y478252D01*
X381311Y478157D01*
X381376Y478064D01*
X381444Y477974D01*
X381515Y477886D01*
X381590Y477800D01*
X381667Y477717D01*
X381747Y477637D01*
X381830Y477560D01*
X381916Y477485D01*
X382004Y477414D01*
X382094Y477346D01*
X382187Y477281D01*
X382282Y477219D01*
X382379Y477161D01*
X382478Y477106D01*
X382579Y477055D01*
X382682Y477007D01*
X382786Y476962D01*
X382892Y476922D01*
X382999Y476885D01*
X383107Y476852D01*
X383217Y476822D01*
X383327Y476797D01*
X383438Y476775D01*
X383550Y476758D01*
X383663Y476744D01*
X383776Y476734D01*
X383889Y476728D01*
X384002Y476726D01*
X387248Y476726D01*
X493319Y337254D02*
X493319Y335306D01*
X493319Y337254D02*
X486828Y337254D01*
X486828Y333359D01*
X486830Y333260D01*
X486836Y333160D01*
X486845Y333061D01*
X486858Y332963D01*
X486875Y332865D01*
X486896Y332767D01*
X486921Y332671D01*
X486949Y332576D01*
X486981Y332482D01*
X487016Y332389D01*
X487055Y332297D01*
X487098Y332207D01*
X487143Y332119D01*
X487193Y332032D01*
X487245Y331948D01*
X487301Y331865D01*
X487359Y331785D01*
X487421Y331707D01*
X487486Y331632D01*
X487554Y331559D01*
X487624Y331489D01*
X487697Y331421D01*
X487772Y331356D01*
X487850Y331294D01*
X487930Y331236D01*
X488013Y331180D01*
X488097Y331128D01*
X488184Y331078D01*
X488272Y331033D01*
X488362Y330990D01*
X488454Y330951D01*
X488547Y330916D01*
X488641Y330884D01*
X488736Y330856D01*
X488832Y330831D01*
X488930Y330810D01*
X489028Y330793D01*
X489126Y330780D01*
X489225Y330771D01*
X489325Y330765D01*
X489424Y330763D01*
X495916Y330763D01*
X496015Y330765D01*
X496115Y330771D01*
X496214Y330780D01*
X496312Y330793D01*
X496410Y330810D01*
X496508Y330831D01*
X496604Y330856D01*
X496699Y330884D01*
X496793Y330916D01*
X496886Y330951D01*
X496978Y330990D01*
X497068Y331033D01*
X497156Y331078D01*
X497243Y331128D01*
X497327Y331180D01*
X497410Y331236D01*
X497490Y331294D01*
X497568Y331356D01*
X497643Y331421D01*
X497716Y331489D01*
X497786Y331559D01*
X497854Y331632D01*
X497919Y331707D01*
X497981Y331785D01*
X498039Y331865D01*
X498095Y331948D01*
X498147Y332032D01*
X498197Y332119D01*
X498242Y332207D01*
X498285Y332297D01*
X498324Y332389D01*
X498359Y332481D01*
X498391Y332576D01*
X498419Y332671D01*
X498444Y332767D01*
X498465Y332865D01*
X498482Y332963D01*
X498495Y333061D01*
X498504Y333160D01*
X498510Y333260D01*
X498512Y333359D01*
X498512Y337254D01*
X498512Y342954D02*
X486828Y342954D01*
X486828Y349446D02*
X498512Y342954D01*
X498512Y349446D02*
X486828Y349446D01*
X486828Y355146D02*
X498512Y355146D01*
X498512Y358392D01*
X498510Y358505D01*
X498504Y358618D01*
X498494Y358731D01*
X498480Y358844D01*
X498463Y358956D01*
X498441Y359067D01*
X498416Y359177D01*
X498386Y359287D01*
X498353Y359395D01*
X498316Y359502D01*
X498276Y359608D01*
X498231Y359712D01*
X498183Y359815D01*
X498132Y359916D01*
X498077Y360015D01*
X498019Y360112D01*
X497957Y360207D01*
X497892Y360300D01*
X497824Y360390D01*
X497753Y360478D01*
X497678Y360564D01*
X497601Y360647D01*
X497521Y360727D01*
X497438Y360804D01*
X497352Y360879D01*
X497264Y360950D01*
X497174Y361018D01*
X497081Y361083D01*
X496986Y361145D01*
X496889Y361203D01*
X496790Y361258D01*
X496689Y361309D01*
X496586Y361357D01*
X496482Y361402D01*
X496376Y361442D01*
X496269Y361479D01*
X496161Y361512D01*
X496051Y361542D01*
X495941Y361567D01*
X495830Y361589D01*
X495718Y361606D01*
X495605Y361620D01*
X495492Y361630D01*
X495379Y361636D01*
X495266Y361638D01*
X490074Y361638D01*
X489961Y361636D01*
X489848Y361630D01*
X489735Y361620D01*
X489622Y361606D01*
X489510Y361589D01*
X489399Y361567D01*
X489289Y361542D01*
X489179Y361512D01*
X489071Y361479D01*
X488964Y361442D01*
X488858Y361402D01*
X488754Y361357D01*
X488651Y361309D01*
X488550Y361258D01*
X488451Y361203D01*
X488354Y361145D01*
X488259Y361083D01*
X488166Y361018D01*
X488076Y360950D01*
X487988Y360879D01*
X487902Y360804D01*
X487819Y360727D01*
X487739Y360647D01*
X487662Y360564D01*
X487587Y360478D01*
X487516Y360390D01*
X487448Y360300D01*
X487383Y360207D01*
X487321Y360112D01*
X487263Y360015D01*
X487208Y359916D01*
X487157Y359815D01*
X487109Y359712D01*
X487064Y359608D01*
X487024Y359502D01*
X486987Y359395D01*
X486954Y359287D01*
X486924Y359177D01*
X486899Y359067D01*
X486877Y358956D01*
X486860Y358844D01*
X486846Y358731D01*
X486836Y358618D01*
X486830Y358505D01*
X486828Y358392D01*
X486828Y355146D01*
X407596Y209973D02*
X405648Y209973D01*
X405648Y203482D01*
X409543Y203482D01*
X409642Y203484D01*
X409742Y203490D01*
X409841Y203499D01*
X409939Y203512D01*
X410037Y203529D01*
X410135Y203550D01*
X410231Y203575D01*
X410326Y203603D01*
X410420Y203635D01*
X410513Y203670D01*
X410605Y203709D01*
X410695Y203752D01*
X410783Y203797D01*
X410870Y203847D01*
X410954Y203899D01*
X411037Y203955D01*
X411117Y204013D01*
X411195Y204075D01*
X411270Y204140D01*
X411343Y204208D01*
X411413Y204278D01*
X411481Y204351D01*
X411546Y204426D01*
X411608Y204504D01*
X411666Y204584D01*
X411722Y204667D01*
X411774Y204751D01*
X411824Y204838D01*
X411869Y204926D01*
X411912Y205016D01*
X411951Y205108D01*
X411986Y205201D01*
X412018Y205295D01*
X412046Y205390D01*
X412071Y205486D01*
X412092Y205584D01*
X412109Y205682D01*
X412122Y205780D01*
X412131Y205879D01*
X412137Y205979D01*
X412139Y206078D01*
X412140Y206078D02*
X412140Y212570D01*
X412139Y212570D02*
X412137Y212669D01*
X412131Y212769D01*
X412122Y212868D01*
X412109Y212966D01*
X412092Y213064D01*
X412071Y213162D01*
X412046Y213258D01*
X412018Y213353D01*
X411986Y213447D01*
X411951Y213540D01*
X411912Y213632D01*
X411869Y213722D01*
X411824Y213810D01*
X411774Y213897D01*
X411722Y213981D01*
X411666Y214064D01*
X411608Y214144D01*
X411546Y214222D01*
X411481Y214297D01*
X411413Y214370D01*
X411343Y214440D01*
X411270Y214508D01*
X411195Y214573D01*
X411117Y214635D01*
X411037Y214693D01*
X410954Y214749D01*
X410870Y214801D01*
X410783Y214851D01*
X410695Y214896D01*
X410605Y214939D01*
X410513Y214978D01*
X410420Y215013D01*
X410326Y215045D01*
X410231Y215073D01*
X410135Y215098D01*
X410037Y215119D01*
X409939Y215136D01*
X409841Y215149D01*
X409742Y215158D01*
X409642Y215164D01*
X409543Y215166D01*
X405648Y215166D01*
X399948Y215166D02*
X399948Y203482D01*
X393456Y203482D02*
X399948Y215166D01*
X393456Y215166D02*
X393456Y203482D01*
X387756Y203482D02*
X387756Y215166D01*
X384510Y215166D01*
X384397Y215164D01*
X384284Y215158D01*
X384171Y215148D01*
X384058Y215134D01*
X383946Y215117D01*
X383835Y215095D01*
X383725Y215070D01*
X383615Y215040D01*
X383507Y215007D01*
X383400Y214970D01*
X383294Y214930D01*
X383190Y214885D01*
X383087Y214837D01*
X382986Y214786D01*
X382887Y214731D01*
X382790Y214673D01*
X382695Y214611D01*
X382602Y214546D01*
X382512Y214478D01*
X382424Y214407D01*
X382338Y214332D01*
X382255Y214255D01*
X382175Y214175D01*
X382098Y214092D01*
X382023Y214006D01*
X381952Y213918D01*
X381884Y213828D01*
X381819Y213735D01*
X381757Y213640D01*
X381699Y213543D01*
X381644Y213444D01*
X381593Y213343D01*
X381545Y213240D01*
X381500Y213136D01*
X381460Y213030D01*
X381423Y212923D01*
X381390Y212815D01*
X381360Y212705D01*
X381335Y212595D01*
X381313Y212484D01*
X381296Y212372D01*
X381282Y212259D01*
X381272Y212146D01*
X381266Y212033D01*
X381264Y211920D01*
X381264Y206728D01*
X381266Y206615D01*
X381272Y206502D01*
X381282Y206389D01*
X381296Y206276D01*
X381313Y206164D01*
X381335Y206053D01*
X381360Y205943D01*
X381390Y205833D01*
X381423Y205725D01*
X381460Y205618D01*
X381500Y205512D01*
X381545Y205408D01*
X381593Y205305D01*
X381644Y205204D01*
X381699Y205105D01*
X381757Y205008D01*
X381819Y204913D01*
X381884Y204820D01*
X381952Y204730D01*
X382023Y204642D01*
X382098Y204556D01*
X382175Y204473D01*
X382255Y204393D01*
X382338Y204316D01*
X382424Y204241D01*
X382512Y204170D01*
X382602Y204102D01*
X382695Y204037D01*
X382790Y203975D01*
X382887Y203917D01*
X382986Y203862D01*
X383087Y203811D01*
X383190Y203763D01*
X383294Y203718D01*
X383400Y203678D01*
X383507Y203641D01*
X383615Y203608D01*
X383725Y203578D01*
X383835Y203553D01*
X383946Y203531D01*
X384058Y203514D01*
X384171Y203500D01*
X384284Y203490D01*
X384397Y203484D01*
X384510Y203482D01*
X387756Y203482D01*
X200379Y335306D02*
X200379Y337254D01*
X193888Y337254D01*
X193888Y333359D01*
X193890Y333260D01*
X193896Y333160D01*
X193905Y333061D01*
X193918Y332963D01*
X193935Y332865D01*
X193956Y332767D01*
X193981Y332671D01*
X194009Y332576D01*
X194041Y332482D01*
X194076Y332389D01*
X194115Y332297D01*
X194158Y332207D01*
X194203Y332119D01*
X194253Y332032D01*
X194305Y331948D01*
X194361Y331865D01*
X194419Y331785D01*
X194481Y331707D01*
X194546Y331632D01*
X194614Y331559D01*
X194684Y331489D01*
X194757Y331421D01*
X194832Y331356D01*
X194910Y331294D01*
X194990Y331236D01*
X195073Y331180D01*
X195157Y331128D01*
X195244Y331078D01*
X195332Y331033D01*
X195422Y330990D01*
X195514Y330951D01*
X195607Y330916D01*
X195701Y330884D01*
X195796Y330856D01*
X195892Y330831D01*
X195990Y330810D01*
X196088Y330793D01*
X196186Y330780D01*
X196285Y330771D01*
X196385Y330765D01*
X196484Y330763D01*
X202976Y330763D01*
X203075Y330765D01*
X203175Y330771D01*
X203274Y330780D01*
X203372Y330793D01*
X203470Y330810D01*
X203568Y330831D01*
X203664Y330856D01*
X203759Y330884D01*
X203853Y330916D01*
X203946Y330951D01*
X204038Y330990D01*
X204128Y331033D01*
X204216Y331078D01*
X204303Y331128D01*
X204387Y331180D01*
X204470Y331236D01*
X204550Y331294D01*
X204628Y331356D01*
X204703Y331421D01*
X204776Y331489D01*
X204846Y331559D01*
X204914Y331632D01*
X204979Y331707D01*
X205041Y331785D01*
X205099Y331865D01*
X205155Y331948D01*
X205207Y332032D01*
X205257Y332119D01*
X205302Y332207D01*
X205345Y332297D01*
X205384Y332389D01*
X205419Y332481D01*
X205451Y332576D01*
X205479Y332671D01*
X205504Y332767D01*
X205525Y332865D01*
X205542Y332963D01*
X205555Y333061D01*
X205564Y333160D01*
X205570Y333260D01*
X205572Y333359D01*
X205572Y337254D01*
X205572Y342954D02*
X193888Y342954D01*
X193888Y349446D02*
X205572Y342954D01*
X205572Y349446D02*
X193888Y349446D01*
X193888Y355146D02*
X205572Y355146D01*
X205572Y358392D01*
X205570Y358505D01*
X205564Y358618D01*
X205554Y358731D01*
X205540Y358844D01*
X205523Y358956D01*
X205501Y359067D01*
X205476Y359177D01*
X205446Y359287D01*
X205413Y359395D01*
X205376Y359502D01*
X205336Y359608D01*
X205291Y359712D01*
X205243Y359815D01*
X205192Y359916D01*
X205137Y360015D01*
X205079Y360112D01*
X205017Y360207D01*
X204952Y360300D01*
X204884Y360390D01*
X204813Y360478D01*
X204738Y360564D01*
X204661Y360647D01*
X204581Y360727D01*
X204498Y360804D01*
X204412Y360879D01*
X204324Y360950D01*
X204234Y361018D01*
X204141Y361083D01*
X204046Y361145D01*
X203949Y361203D01*
X203850Y361258D01*
X203749Y361309D01*
X203646Y361357D01*
X203542Y361402D01*
X203436Y361442D01*
X203329Y361479D01*
X203221Y361512D01*
X203111Y361542D01*
X203001Y361567D01*
X202890Y361589D01*
X202778Y361606D01*
X202665Y361620D01*
X202552Y361630D01*
X202439Y361636D01*
X202326Y361638D01*
X197134Y361638D01*
X197021Y361636D01*
X196908Y361630D01*
X196795Y361620D01*
X196682Y361606D01*
X196570Y361589D01*
X196459Y361567D01*
X196349Y361542D01*
X196239Y361512D01*
X196131Y361479D01*
X196024Y361442D01*
X195918Y361402D01*
X195814Y361357D01*
X195711Y361309D01*
X195610Y361258D01*
X195511Y361203D01*
X195414Y361145D01*
X195319Y361083D01*
X195226Y361018D01*
X195136Y360950D01*
X195048Y360879D01*
X194962Y360804D01*
X194879Y360727D01*
X194799Y360647D01*
X194722Y360564D01*
X194647Y360478D01*
X194576Y360390D01*
X194508Y360300D01*
X194443Y360207D01*
X194381Y360112D01*
X194323Y360015D01*
X194268Y359916D01*
X194217Y359815D01*
X194169Y359712D01*
X194124Y359608D01*
X194084Y359502D01*
X194047Y359395D01*
X194014Y359287D01*
X193984Y359177D01*
X193959Y359067D01*
X193937Y358956D01*
X193920Y358844D01*
X193906Y358731D01*
X193896Y358618D01*
X193890Y358505D01*
X193888Y358392D01*
X193888Y355146D01*
X303628Y483725D02*
X305576Y483725D01*
X303628Y483725D02*
X303628Y477234D01*
X307523Y477234D01*
X307622Y477236D01*
X307722Y477242D01*
X307821Y477251D01*
X307919Y477264D01*
X308017Y477281D01*
X308115Y477302D01*
X308211Y477327D01*
X308306Y477355D01*
X308400Y477387D01*
X308493Y477422D01*
X308585Y477461D01*
X308675Y477504D01*
X308763Y477549D01*
X308850Y477599D01*
X308934Y477651D01*
X309017Y477707D01*
X309097Y477765D01*
X309175Y477827D01*
X309250Y477892D01*
X309323Y477960D01*
X309393Y478030D01*
X309461Y478103D01*
X309526Y478178D01*
X309588Y478256D01*
X309646Y478336D01*
X309702Y478419D01*
X309754Y478503D01*
X309804Y478590D01*
X309849Y478678D01*
X309892Y478768D01*
X309931Y478860D01*
X309966Y478953D01*
X309998Y479047D01*
X310026Y479142D01*
X310051Y479238D01*
X310072Y479336D01*
X310089Y479434D01*
X310102Y479532D01*
X310111Y479631D01*
X310117Y479731D01*
X310119Y479830D01*
X310120Y479830D02*
X310120Y486322D01*
X310119Y486322D02*
X310117Y486421D01*
X310111Y486521D01*
X310102Y486620D01*
X310089Y486718D01*
X310072Y486816D01*
X310051Y486914D01*
X310026Y487010D01*
X309998Y487105D01*
X309966Y487199D01*
X309931Y487292D01*
X309892Y487384D01*
X309849Y487474D01*
X309804Y487562D01*
X309754Y487649D01*
X309702Y487733D01*
X309646Y487816D01*
X309588Y487896D01*
X309526Y487974D01*
X309461Y488049D01*
X309393Y488122D01*
X309323Y488192D01*
X309250Y488260D01*
X309175Y488325D01*
X309097Y488387D01*
X309017Y488445D01*
X308934Y488501D01*
X308850Y488553D01*
X308763Y488603D01*
X308675Y488648D01*
X308585Y488691D01*
X308493Y488730D01*
X308400Y488765D01*
X308306Y488797D01*
X308211Y488825D01*
X308115Y488850D01*
X308017Y488871D01*
X307919Y488888D01*
X307821Y488901D01*
X307722Y488910D01*
X307622Y488916D01*
X307523Y488918D01*
X303628Y488918D01*
X297928Y488918D02*
X297928Y477234D01*
X291436Y477234D02*
X297928Y488918D01*
X291436Y488918D02*
X291436Y477234D01*
X285736Y477234D02*
X285736Y488918D01*
X282490Y488918D01*
X282377Y488916D01*
X282264Y488910D01*
X282151Y488900D01*
X282038Y488886D01*
X281926Y488869D01*
X281815Y488847D01*
X281705Y488822D01*
X281595Y488792D01*
X281487Y488759D01*
X281380Y488722D01*
X281274Y488682D01*
X281170Y488637D01*
X281067Y488589D01*
X280966Y488538D01*
X280867Y488483D01*
X280770Y488425D01*
X280675Y488363D01*
X280582Y488298D01*
X280492Y488230D01*
X280404Y488159D01*
X280318Y488084D01*
X280235Y488007D01*
X280155Y487927D01*
X280078Y487844D01*
X280003Y487758D01*
X279932Y487670D01*
X279864Y487580D01*
X279799Y487487D01*
X279737Y487392D01*
X279679Y487295D01*
X279624Y487196D01*
X279573Y487095D01*
X279525Y486992D01*
X279480Y486888D01*
X279440Y486782D01*
X279403Y486675D01*
X279370Y486567D01*
X279340Y486457D01*
X279315Y486347D01*
X279293Y486236D01*
X279276Y486124D01*
X279262Y486011D01*
X279252Y485898D01*
X279246Y485785D01*
X279244Y485672D01*
X279244Y480480D01*
X279246Y480367D01*
X279252Y480254D01*
X279262Y480141D01*
X279276Y480028D01*
X279293Y479916D01*
X279315Y479805D01*
X279340Y479695D01*
X279370Y479585D01*
X279403Y479477D01*
X279440Y479370D01*
X279480Y479264D01*
X279525Y479160D01*
X279573Y479057D01*
X279624Y478956D01*
X279679Y478857D01*
X279737Y478760D01*
X279799Y478665D01*
X279864Y478572D01*
X279932Y478482D01*
X280003Y478394D01*
X280078Y478308D01*
X280155Y478225D01*
X280235Y478145D01*
X280318Y478068D01*
X280404Y477993D01*
X280492Y477922D01*
X280582Y477854D01*
X280675Y477789D01*
X280770Y477727D01*
X280867Y477669D01*
X280966Y477614D01*
X281067Y477563D01*
X281170Y477515D01*
X281274Y477470D01*
X281380Y477430D01*
X281487Y477393D01*
X281595Y477360D01*
X281705Y477330D01*
X281815Y477305D01*
X281926Y477283D01*
X282038Y477266D01*
X282151Y477252D01*
X282264Y477242D01*
X282377Y477236D01*
X282490Y477234D01*
X285736Y477234D01*
X304302Y210929D02*
X306250Y210929D01*
X304302Y210929D02*
X304302Y204438D01*
X308197Y204438D01*
X308296Y204440D01*
X308396Y204446D01*
X308495Y204455D01*
X308593Y204468D01*
X308691Y204485D01*
X308789Y204506D01*
X308885Y204531D01*
X308980Y204559D01*
X309074Y204591D01*
X309167Y204626D01*
X309259Y204665D01*
X309349Y204708D01*
X309437Y204753D01*
X309524Y204803D01*
X309608Y204855D01*
X309691Y204911D01*
X309771Y204969D01*
X309849Y205031D01*
X309924Y205096D01*
X309997Y205164D01*
X310067Y205234D01*
X310135Y205307D01*
X310200Y205382D01*
X310262Y205460D01*
X310320Y205540D01*
X310376Y205623D01*
X310428Y205707D01*
X310478Y205794D01*
X310523Y205882D01*
X310566Y205972D01*
X310605Y206064D01*
X310640Y206157D01*
X310672Y206251D01*
X310700Y206346D01*
X310725Y206442D01*
X310746Y206540D01*
X310763Y206638D01*
X310776Y206736D01*
X310785Y206835D01*
X310791Y206935D01*
X310793Y207034D01*
X310794Y207034D02*
X310794Y213526D01*
X310793Y213526D02*
X310791Y213625D01*
X310785Y213725D01*
X310776Y213824D01*
X310763Y213922D01*
X310746Y214020D01*
X310725Y214118D01*
X310700Y214214D01*
X310672Y214309D01*
X310640Y214403D01*
X310605Y214496D01*
X310566Y214588D01*
X310523Y214678D01*
X310478Y214766D01*
X310428Y214853D01*
X310376Y214937D01*
X310320Y215020D01*
X310262Y215100D01*
X310200Y215178D01*
X310135Y215253D01*
X310067Y215326D01*
X309997Y215396D01*
X309924Y215464D01*
X309849Y215529D01*
X309771Y215591D01*
X309691Y215649D01*
X309608Y215705D01*
X309524Y215757D01*
X309437Y215807D01*
X309349Y215852D01*
X309259Y215895D01*
X309167Y215934D01*
X309074Y215969D01*
X308980Y216001D01*
X308885Y216029D01*
X308789Y216054D01*
X308691Y216075D01*
X308593Y216092D01*
X308495Y216105D01*
X308396Y216114D01*
X308296Y216120D01*
X308197Y216122D01*
X304302Y216122D01*
X298602Y216122D02*
X298602Y204438D01*
X292110Y204438D02*
X298602Y216122D01*
X292110Y216122D02*
X292110Y204438D01*
X286410Y204438D02*
X286410Y216122D01*
X283164Y216122D01*
X283051Y216120D01*
X282938Y216114D01*
X282825Y216104D01*
X282712Y216090D01*
X282600Y216073D01*
X282489Y216051D01*
X282379Y216026D01*
X282269Y215996D01*
X282161Y215963D01*
X282054Y215926D01*
X281948Y215886D01*
X281844Y215841D01*
X281741Y215793D01*
X281640Y215742D01*
X281541Y215687D01*
X281444Y215629D01*
X281349Y215567D01*
X281256Y215502D01*
X281166Y215434D01*
X281078Y215363D01*
X280992Y215288D01*
X280909Y215211D01*
X280829Y215131D01*
X280752Y215048D01*
X280677Y214962D01*
X280606Y214874D01*
X280538Y214784D01*
X280473Y214691D01*
X280411Y214596D01*
X280353Y214499D01*
X280298Y214400D01*
X280247Y214299D01*
X280199Y214196D01*
X280154Y214092D01*
X280114Y213986D01*
X280077Y213879D01*
X280044Y213771D01*
X280014Y213661D01*
X279989Y213551D01*
X279967Y213440D01*
X279950Y213328D01*
X279936Y213215D01*
X279926Y213102D01*
X279920Y212989D01*
X279918Y212876D01*
X279918Y207684D01*
X279920Y207571D01*
X279926Y207458D01*
X279936Y207345D01*
X279950Y207232D01*
X279967Y207120D01*
X279989Y207009D01*
X280014Y206899D01*
X280044Y206789D01*
X280077Y206681D01*
X280114Y206574D01*
X280154Y206468D01*
X280199Y206364D01*
X280247Y206261D01*
X280298Y206160D01*
X280353Y206061D01*
X280411Y205964D01*
X280473Y205869D01*
X280538Y205776D01*
X280606Y205686D01*
X280677Y205598D01*
X280752Y205512D01*
X280829Y205429D01*
X280909Y205349D01*
X280992Y205272D01*
X281078Y205197D01*
X281166Y205126D01*
X281256Y205058D01*
X281349Y204993D01*
X281444Y204931D01*
X281541Y204873D01*
X281640Y204818D01*
X281741Y204767D01*
X281844Y204719D01*
X281948Y204674D01*
X282054Y204634D01*
X282161Y204597D01*
X282269Y204564D01*
X282379Y204534D01*
X282489Y204509D01*
X282600Y204487D01*
X282712Y204470D01*
X282825Y204456D01*
X282938Y204446D01*
X283051Y204440D01*
X283164Y204438D01*
X286410Y204438D01*
M02*
